<svg width="12" height="12" viewBox="0 0 12 12" fill="none" xmlns="http://www.w3.org/2000/svg">
    <circle cx="6" cy="6" r="6" fill="white" />
    <path stroke="#676767" stroke-width="0.4px" fill-rule="evenodd" clip-rule="evenodd"
        d="M8.28335 4.1504C8.31186 4.12193 8.33448 4.08813 8.34992 4.05091C8.36536 4.0137 8.37332 3.97381 8.37334 3.93353C8.37337 3.89324 8.36546 3.85334 8.35006 3.81611C8.33467 3.77888 8.31209 3.74504 8.28362 3.71654C8.25515 3.68803 8.22134 3.66541 8.18413 3.64997C8.14692 3.63453 8.10703 3.62657 8.06674 3.62655C8.02646 3.62652 7.98656 3.63443 7.94933 3.64983C7.91209 3.66522 7.87826 3.6878 7.84975 3.71627L5.99962 5.5664L4.15002 3.71627C4.09245 3.6587 4.01437 3.62636 3.93296 3.62636C3.85154 3.62636 3.77346 3.6587 3.71589 3.71627C3.65832 3.77384 3.62598 3.85192 3.62598 3.93334C3.62598 4.01475 3.65832 4.09283 3.71589 4.1504L5.56602 6L3.71589 7.8496C3.68738 7.87811 3.66477 7.91195 3.64934 7.94919C3.63392 7.98644 3.62598 8.02636 3.62598 8.06667C3.62598 8.10698 3.63392 8.1469 3.64934 8.18415C3.66477 8.22139 3.68738 8.25523 3.71589 8.28374C3.77346 8.34131 3.85154 8.37365 3.93296 8.37365C3.97327 8.37365 4.01319 8.36571 4.05043 8.35028C4.08768 8.33485 4.12152 8.31224 4.15002 8.28374L5.99962 6.4336L7.84975 8.28374C7.90732 8.34124 7.98538 8.37351 8.06674 8.37346C8.14811 8.37341 8.22612 8.34104 8.28362 8.28347C8.34112 8.2259 8.37339 8.14785 8.37334 8.06648C8.37329 7.98512 8.34092 7.9071 8.28335 7.8496L6.43322 6L8.28335 4.1504Z"
        fill="#676767" />
</svg>