<svg width="413" height="450" viewBox="0 0 413 450" fill="none" xmlns="http://www.w3.org/2000/svg">
<rect x="121.473" y="151.482" width="117" height="160" rx="12.5" stroke="#4285F4" stroke-dasharray="8 8"/>
<rect x="80.4735" y="261.482" width="9" height="9" rx="4.5" stroke="#91BFFF"/>
<rect x="196.474" y="315.482" width="7" height="7" rx="3.5" stroke="#91BFFF"/>
<rect x="314.474" y="198.482" width="7" height="7" rx="3.5" stroke="#91BFFF"/>
<rect x="168.474" y="83.4817" width="7" height="7" rx="3.5" stroke="#91BFFF"/>
<rect x="146.973" y="116.982" width="118" height="161" rx="13" fill="#F5F5F5"/>
<g clip-path="url(#clip0_56_84)">
<path d="M163.825 155.836L158.971 150.982L163.825 146.128C163.918 146.034 163.97 145.907 163.97 145.775C163.97 145.642 163.918 145.515 163.825 145.421L161.532 143.128C161.486 143.082 161.431 143.045 161.37 143.019C161.309 142.994 161.244 142.981 161.178 142.981C161.113 142.981 161.048 142.994 160.987 143.019C160.926 143.045 160.871 143.082 160.825 143.128L155.971 147.982L151.117 143.128C151.023 143.034 150.896 142.982 150.763 142.982C150.631 142.982 150.504 143.034 150.41 143.128L148.117 145.421C148.07 145.467 148.034 145.523 148.008 145.583C147.983 145.644 147.97 145.709 147.97 145.775C147.97 145.84 147.983 145.905 148.008 145.966C148.034 146.027 148.07 146.082 148.117 146.128L152.971 150.982L148.117 155.836C148.023 155.93 147.971 156.057 147.971 156.19C147.971 156.322 148.023 156.449 148.117 156.543L150.41 158.836C150.456 158.883 150.511 158.92 150.572 158.945C150.633 158.97 150.698 158.983 150.763 158.983C150.829 158.983 150.894 158.97 150.955 158.945C151.016 158.92 151.071 158.883 151.117 158.836L155.971 153.982L160.825 158.836C160.919 158.93 161.046 158.982 161.178 158.982C161.311 158.982 161.438 158.93 161.532 158.836L163.825 156.543C163.872 156.497 163.908 156.442 163.934 156.381C163.959 156.32 163.972 156.255 163.972 156.19C163.972 156.124 163.959 156.059 163.934 155.998C163.908 155.938 163.872 155.882 163.825 155.836Z" fill="#91BFFF"/>
</g>
<path d="M176.973 220.982H224.973M176.973 252.982H200.973M136.973 148.982V276.982C136.973 281.226 138.659 285.296 141.66 288.296C144.66 291.297 148.73 292.982 152.973 292.982H248.973C253.217 292.982 257.287 291.297 260.287 288.296C263.288 285.296 264.973 281.226 264.973 276.982V183.718C264.973 181.587 264.547 179.477 263.72 177.512C262.893 175.548 261.682 173.768 260.157 172.278L224.637 137.542C221.648 134.62 217.634 132.983 213.453 132.982H152.973C148.73 132.982 144.66 134.668 141.66 137.669C138.659 140.669 136.973 144.739 136.973 148.982Z" stroke="#91BFFF" stroke-width="2" stroke-linecap="round" stroke-linejoin="round"/>
<path d="M216.973 132.982V164.982C216.973 169.226 218.659 173.296 221.66 176.296C224.66 179.297 228.73 180.982 232.973 180.982H264.973" stroke="#91BFFF" stroke-width="2" stroke-linejoin="round"/>
<line x1="176.973" y1="230.982" x2="223.973" y2="230.982" stroke="#91BFFF" stroke-width="2" stroke-linecap="round"/>
<line x1="176.973" y1="241.982" x2="223.973" y2="241.982" stroke="#91BFFF" stroke-width="2" stroke-linecap="round"/>
<rect x="171.971" y="179.982" width="8" height="8" rx="4" fill="#91BFFF"/>
<rect x="213.971" y="179.982" width="8" height="8" rx="4" fill="#91BFFF"/>
<path d="M188.69 205.779L190.252 204.685C189.367 203.435 188.924 201.925 188.924 200.154C188.924 197.966 189.718 196.078 191.307 194.49C192.896 192.901 194.784 192.107 196.971 192.107C199.159 192.107 201.047 192.966 202.635 194.685C204.224 196.404 205.018 198.292 205.018 200.349C205.018 201.99 204.575 203.435 203.69 204.685L205.252 205.779C206.398 204.112 206.971 202.237 206.971 200.154C206.971 197.42 205.988 195.069 204.022 193.103C202.056 191.137 199.705 190.154 196.971 190.154C194.237 190.154 191.886 191.137 189.92 193.103C187.954 195.069 186.971 197.42 186.971 200.154C186.971 202.237 187.544 204.112 188.69 205.779Z" fill="#91BFFF"/>
<path d="M124.406 103.218C123.042 100.851 120.939 98.9974 118.423 97.9461C115.907 96.8948 113.12 96.7043 110.494 97.4043C107.868 98.1042 105.55 99.6554 103.9 101.817C102.25 103.978 101.361 106.629 101.371 109.357C101.373 110.296 101.747 111.197 102.411 111.863C103.075 112.528 103.974 112.903 104.91 112.905C105.846 112.907 106.743 112.536 107.403 111.874C108.063 111.211 108.433 110.312 108.43 109.373C108.429 108.441 108.672 107.526 109.135 106.72C109.598 105.914 110.265 105.246 111.068 104.781C112.282 104.08 113.726 103.893 115.083 104.261C116.44 104.628 117.598 105.521 118.303 106.742C119.008 107.962 119.201 109.411 118.841 110.77C118.481 112.129 117.597 113.286 116.383 113.987L116.374 113.992C116.189 114.126 116.018 114.278 115.863 114.447C115.671 114.586 115.492 114.744 115.33 114.918C115.216 115.107 115.12 115.306 115.043 115.513C114.923 115.711 114.823 115.919 114.744 116.136C114.702 116.381 114.685 116.629 114.695 116.876C114.663 117.079 114.65 117.284 114.654 117.489C114.71 117.739 114.792 117.983 114.898 118.215C114.948 118.422 115.016 118.623 115.103 118.817L116.875 121.886L116.901 121.916L117.771 123.423C118.241 124.234 119.013 124.827 119.917 125.071C120.82 125.315 121.782 125.19 122.59 124.723L122.599 124.718C122.999 124.486 123.35 124.177 123.63 123.808C123.911 123.44 124.116 123.019 124.234 122.57C124.352 122.122 124.38 121.653 124.318 121.193C124.255 120.732 124.103 120.288 123.869 119.885L122.69 117.857C124.508 115.933 125.656 113.471 125.965 110.834C126.274 108.197 125.727 105.527 124.406 103.218ZM123.61 131.458C123.428 132.133 123.45 132.847 123.674 133.512C123.897 134.176 124.311 134.759 124.864 135.189C125.417 135.619 126.084 135.875 126.78 135.925C127.476 135.976 128.171 135.818 128.775 135.472C129.58 134.998 130.172 134.232 130.428 133.331C130.659 132.422 130.524 131.457 130.054 130.642C129.584 129.828 128.815 129.229 127.912 128.974C127.012 128.764 126.068 128.903 125.269 129.364C124.471 129.825 123.878 130.573 123.61 131.458Z" fill="#91BFFF"/>
<path d="M327.442 342.016L298.414 312.988C305.389 304.613 308.868 293.872 308.125 282.998C307.383 272.125 302.477 261.956 294.428 254.607C286.38 247.258 275.807 243.295 264.911 243.543C254.015 243.791 243.634 248.229 235.927 255.936C228.22 263.643 223.781 274.024 223.534 284.92C223.286 295.817 227.249 306.389 234.598 314.438C241.946 322.487 252.115 327.392 262.989 328.135C273.863 328.877 284.604 325.398 292.978 318.423L322.006 347.451L327.442 342.016ZM231.348 285.951C231.348 279.109 233.377 272.42 237.178 266.731C240.979 261.043 246.382 256.609 252.703 253.99C259.024 251.372 265.98 250.687 272.69 252.022C279.401 253.356 285.565 256.651 290.403 261.489C295.241 266.327 298.536 272.491 299.871 279.202C301.205 285.912 300.52 292.868 297.902 299.189C295.284 305.51 290.85 310.913 285.161 314.714C279.472 318.516 272.784 320.544 265.942 320.544C256.77 320.534 247.977 316.886 241.491 310.401C235.006 303.916 231.358 295.122 231.348 285.951Z" fill="#4285F4"/>
<path d="M298.145 171.857V169.904H303.223V164.826H305.176V169.904H310.255V171.857H305.176V176.935H303.223V171.857H298.145Z" fill="#4285F4"/>
<path d="M93.9109 235.482V233.919H97.9734V229.857H99.5359V233.919H103.598V235.482H99.5359V239.544H97.9734V235.482H93.9109Z" fill="#4285F4"/>
<path d="M206.063 106.229L204.958 105.124L207.831 102.251L204.958 99.3786L206.063 98.2738L208.935 101.146L211.808 98.2738L212.913 99.3786L210.04 102.251L212.913 105.124L211.808 106.229L208.935 103.356L206.063 106.229Z" fill="#4285F4"/>
<defs>
<clipPath id="clip0_56_84">
<rect width="16" height="16" fill="white" transform="translate(147.971 142.982)"/>
</clipPath>
</defs>
</svg>
