<svg width="599" height="442" viewBox="0 0 599 442" fill="none" xmlns="http://www.w3.org/2000/svg">
    <path
        d="M270.106 352.42C231.753 301.689 192.379 340.239 202.657 375.695C228.51 432.229 295.307 457.104 351.851 431.256C371.341 422.346 387.883 408.059 399.532 390.075C369.885 417.837 316.052 413.197 270.106 352.42Z"
        fill="#255FDB" fill-opacity="0.1" />
    <path
        d="M111.874 213.581C59.1265 133.593 9.7261e-05 176.22 9.7261e-05 225.085C-0.0212389 241.268 3.46805 257.263 10.2273 271.968C3.2089 238.851 41.2671 213.313 76.7046 260.848C128.161 329.869 178.658 317.727 206.91 286.322C215.984 272.396 221.844 256.625 224.067 240.154V240.372C211.935 278.001 158.395 284.123 111.874 213.581Z"
        fill="#4285F4" fill-opacity="0.1" />
    <path
        d="M244.5 104.316C306.383 104.316 356.648 154.284 357 216.156V215.516C357 153.396 306.632 103.037 244.5 103.037C182.368 103.037 132 153.396 132 215.516V216.156C132.352 154.284 182.617 104.316 244.5 104.316Z"
        fill="#a6c8ff" fill-opacity="0.2" />
    <path
        d="M244.5 326.716C182.617 326.716 132.352 276.748 132 214.876V215.515C132 277.636 182.368 327.994 244.5 327.994C306.632 327.994 357 277.636 357 215.515V214.876C356.648 276.748 306.383 326.716 244.5 326.716Z"
        fill="#1A237E" fill-opacity="0.2" />
    <path
        d="M313.727 74.791C349.599 132.449 380.524 117.699 390.432 105.365C390.031 96.7462 388.637 88.2026 386.277 79.9037C369.555 80.2488 365.656 77.4624 349.203 52.4102C324.057 13.8861 292.378 -12.1247 237.023 5.76971C219.088 12.8029 203.246 24.299 191 39.1683C229.033 4.172 275.695 13.6688 313.727 74.791Z"
        fill="#C4E1FF" fill-opacity="0.1" />
    <path
        d="M558.726 166.305C575.128 191.396 585.112 192.674 598.254 188.839C581.214 128.998 518.881 94.2978 459.028 111.335C455.635 112.301 452.288 113.425 449 114.705C498.449 99.1117 533.516 127.768 558.726 166.305Z"
        fill="#a6c8ff" fill-opacity="0.1" />
    <path
        d="M304.018 344.328C343.954 344.328 376.328 311.954 376.328 272.018C376.328 232.082 343.954 199.708 304.018 199.708C264.083 199.708 231.708 232.082 231.708 272.018C231.708 311.954 264.083 344.328 304.018 344.328Z"
        stroke="#a6c8ff" stroke-width="6" stroke-linecap="round" stroke-linejoin="round"
        stroke-opacity="0.5" />
    <path
        d="M355.156 323.156L363.57 331.57M363.57 331.57V352.625L417.237 406.292L438.292 385.237L384.625 331.57H363.57Z"
        stroke="#a6c8ff" stroke-width="3" stroke-linecap="round" stroke-linejoin="round"
        stroke-opacity="0.5" />
    <path
        d="M164.013 255.2V284H145.613V255.2H80.6133V241.2L144.013 147.2H164.013V238H181.613V255.2H164.013ZM101.413 238H145.613V174.2H144.813L101.413 238Z"
        fill="#a6c8ff" fill-opacity="0.5" />
    <path
        d="M491.013 266.2V295H472.613V266.2H407.613V252.2L471.013 158.2H491.013V249H508.613V266.2H491.013ZM428.413 249H472.613V185.2H471.813L428.413 249Z"
        fill="#a6c8ff" fill-opacity="0.5" />
    <path
        d="M336.027 166.622C296.857 102.01 247.19 107.826 213.568 142.451C196.995 162.576 187.954 187.845 188 213.914C191.516 166.622 248.725 133.709 300.5 213.914C346.523 285.3 403.859 266.702 412.016 229.405V229.048C412.729 223.967 413.033 218.838 412.923 213.709V208.597C392.993 222.861 366.785 217.352 336.027 166.622Z"
        fill="#91BFFF" fill-opacity="0.1" />
    <path
        d="M244.5 327.996C306.632 327.996 357 277.637 357 215.516C357 153.396 306.632 103.037 244.5 103.037C182.368 103.037 132 153.396 132 215.516C132 277.637 182.368 327.996 244.5 327.996Z"
        fill="url(#paint0_radial_53_24)" fill-opacity="0.1" />
    <defs>
        <radialGradient id="paint0_radial_53_24" cx="0" cy="0" r="1" gradientUnits="userSpaceOnUse"
            gradientTransform="translate(165.98 137.012) scale(223.517 223.476)">
            <stop stop-color="#a6c8ff" />
            <stop offset="1" stop-color="#a6c8ff" stop-opacity="0" />
        </radialGradient>
    </defs>
</svg>