<svg class="google-mag" height="20px" version="1.1" viewBox="0 0 20 20" width="20px"
    xmlns="http://www.w3.org/2000/svg" xmlns:xlink="http://www.w3.org/1999/xlink">
    <g id="surface1">
        <path
            d="M 1.613281 8.074219 L 1.558594 8.082031 L 1.558594 8.332031 C 1.558594 8.472656 1.570312 8.582031 1.578125 8.589844 C 1.589844 8.597656 1.601562 8.691406 1.601562 8.800781 C 1.601562 8.949219 1.605469 9.003906 1.628906 9.027344 C 1.648438 9.046875 1.660156 9.097656 1.660156 9.167969 C 1.660156 9.230469 1.667969 9.28125 1.679688 9.28125 C 1.691406 9.28125 1.699219 9.332031 1.699219 9.398438 C 1.699219 9.492188 1.707031 9.519531 1.730469 9.519531 C 1.753906 9.519531 1.761719 9.542969 1.761719 9.605469 C 1.761719 9.652344 1.769531 9.699219 1.777344 9.710938 C 1.789062 9.722656 1.800781 9.769531 1.804688 9.816406 C 1.804688 9.863281 1.816406 9.898438 1.824219 9.898438 C 1.832031 9.898438 1.839844 9.925781 1.839844 9.960938 C 1.839844 9.996094 1.851562 10.027344 1.871094 10.03125 C 1.886719 10.039062 1.898438 10.070312 1.898438 10.109375 C 1.898438 10.148438 1.910156 10.179688 1.917969 10.183594 C 1.929688 10.1875 1.941406 10.21875 1.945312 10.257812 C 1.945312 10.292969 1.960938 10.328125 1.972656 10.335938 C 1.988281 10.339844 2 10.355469 2 10.371094 C 2 10.386719 2.007812 10.417969 2.015625 10.433594 C 2.042969 10.484375 2.082031 10.605469 2.085938 10.636719 C 2.085938 10.648438 2.097656 10.660156 2.113281 10.660156 C 2.128906 10.660156 2.140625 10.683594 2.140625 10.710938 C 2.140625 10.738281 2.148438 10.761719 2.160156 10.761719 C 2.171875 10.761719 2.179688 10.777344 2.179688 10.800781 C 2.179688 10.824219 2.195312 10.847656 2.210938 10.851562 C 2.226562 10.859375 2.238281 10.886719 2.238281 10.914062 C 2.238281 10.9375 2.25 10.960938 2.261719 10.960938 C 2.269531 10.960938 2.28125 10.976562 2.28125 11 C 2.28125 11.019531 2.289062 11.039062 2.300781 11.042969 C 2.3125 11.046875 2.324219 11.070312 2.324219 11.09375 C 2.328125 11.121094 2.339844 11.140625 2.355469 11.140625 C 2.367188 11.140625 2.378906 11.164062 2.378906 11.191406 C 2.378906 11.21875 2.390625 11.238281 2.398438 11.238281 C 2.410156 11.238281 2.421875 11.253906 2.421875 11.269531 C 2.421875 11.285156 2.433594 11.300781 2.449219 11.300781 C 2.464844 11.300781 2.480469 11.316406 2.480469 11.339844 C 2.480469 11.363281 2.488281 11.378906 2.5 11.378906 C 2.511719 11.378906 2.519531 11.394531 2.519531 11.410156 C 2.519531 11.425781 2.527344 11.441406 2.539062 11.441406 C 2.550781 11.441406 2.558594 11.453125 2.558594 11.46875 C 2.558594 11.484375 2.570312 11.507812 2.585938 11.523438 C 2.601562 11.539062 2.625 11.578125 2.640625 11.613281 C 2.65625 11.652344 2.675781 11.679688 2.6875 11.679688 C 2.710938 11.679688 2.761719 11.734375 2.761719 11.761719 C 2.761719 11.800781 2.808594 11.859375 2.835938 11.859375 C 2.851562 11.859375 2.859375 11.871094 2.859375 11.886719 C 2.859375 11.902344 2.867188 11.917969 2.878906 11.921875 C 2.886719 11.925781 2.898438 11.941406 2.902344 11.957031 C 2.90625 11.972656 2.960938 12.039062 3.023438 12.101562 C 3.089844 12.167969 3.140625 12.226562 3.140625 12.238281 C 3.140625 12.246094 3.171875 12.289062 3.210938 12.328125 C 3.25 12.371094 3.28125 12.410156 3.28125 12.421875 C 3.28125 12.433594 3.292969 12.441406 3.308594 12.441406 C 3.328125 12.441406 3.339844 12.453125 3.339844 12.46875 C 3.339844 12.488281 3.347656 12.5 3.359375 12.5 C 3.382812 12.5 3.519531 12.636719 3.519531 12.660156 C 3.519531 12.671875 3.53125 12.679688 3.546875 12.679688 C 3.558594 12.679688 3.601562 12.710938 3.636719 12.75 C 3.675781 12.789062 3.714844 12.820312 3.722656 12.820312 C 3.730469 12.820312 3.792969 12.875 3.859375 12.941406 C 3.925781 13.007812 3.996094 13.058594 4.019531 13.058594 C 4.042969 13.058594 4.058594 13.070312 4.058594 13.082031 C 4.058594 13.109375 4.109375 13.160156 4.136719 13.160156 C 4.148438 13.160156 4.160156 13.167969 4.164062 13.175781 C 4.175781 13.203125 4.339844 13.300781 4.371094 13.300781 C 4.386719 13.300781 4.398438 13.308594 4.390625 13.316406 C 4.378906 13.339844 4.453125 13.398438 4.5 13.398438 C 4.523438 13.398438 4.539062 13.414062 4.539062 13.429688 C 4.539062 13.449219 4.558594 13.460938 4.589844 13.460938 C 4.621094 13.460938 4.636719 13.46875 4.628906 13.480469 C 4.625 13.492188 4.632812 13.5 4.648438 13.5 C 4.664062 13.5 4.679688 13.507812 4.679688 13.519531 C 4.679688 13.53125 4.703125 13.539062 4.730469 13.539062 C 4.761719 13.539062 4.78125 13.550781 4.78125 13.570312 C 4.78125 13.589844 4.800781 13.601562 4.828125 13.601562 C 4.859375 13.601562 4.878906 13.609375 4.878906 13.621094 C 4.878906 13.632812 4.898438 13.640625 4.917969 13.640625 C 4.9375 13.640625 4.960938 13.652344 4.96875 13.671875 C 4.972656 13.6875 4.996094 13.699219 5.019531 13.699219 C 5.042969 13.699219 5.058594 13.710938 5.058594 13.71875 C 5.058594 13.730469 5.082031 13.738281 5.109375 13.738281 C 5.136719 13.738281 5.160156 13.75 5.160156 13.761719 C 5.160156 13.769531 5.183594 13.78125 5.210938 13.78125 C 5.242188 13.78125 5.261719 13.792969 5.261719 13.808594 C 5.261719 13.828125 5.277344 13.839844 5.296875 13.839844 C 5.320312 13.839844 5.34375 13.847656 5.351562 13.859375 C 5.355469 13.871094 5.378906 13.878906 5.402344 13.878906 C 5.421875 13.878906 5.441406 13.890625 5.441406 13.898438 C 5.441406 13.910156 5.457031 13.921875 5.476562 13.921875 C 5.496094 13.921875 5.535156 13.933594 5.566406 13.949219 C 5.597656 13.964844 5.652344 13.980469 5.683594 13.980469 C 5.714844 13.980469 5.738281 13.988281 5.738281 14 C 5.738281 14.011719 5.761719 14.019531 5.789062 14.019531 C 5.820312 14.019531 5.839844 14.03125 5.839844 14.050781 C 5.839844 14.070312 5.863281 14.078125 5.929688 14.078125 C 5.980469 14.078125 6.019531 14.089844 6.019531 14.101562 C 6.019531 14.109375 6.050781 14.121094 6.085938 14.121094 C 6.125 14.121094 6.160156 14.132812 6.164062 14.144531 C 6.171875 14.160156 6.214844 14.175781 6.261719 14.175781 C 6.3125 14.179688 6.351562 14.191406 6.355469 14.199219 C 6.359375 14.210938 6.402344 14.21875 6.449219 14.21875 C 6.5 14.21875 6.542969 14.230469 6.550781 14.238281 C 6.558594 14.25 6.625 14.261719 6.699219 14.261719 C 6.800781 14.261719 6.839844 14.265625 6.847656 14.289062 C 6.855469 14.3125 6.894531 14.320312 7.019531 14.320312 C 7.113281 14.320312 7.179688 14.328125 7.179688 14.339844 C 7.179688 14.351562 7.308594 14.359375 7.519531 14.359375 L 7.859375 14.359375 L 7.859375 12.359375 L 7.609375 12.359375 C 7.417969 12.359375 7.359375 12.355469 7.347656 12.332031 C 7.335938 12.3125 7.28125 12.300781 7.199219 12.292969 C 6.914062 12.265625 6.839844 12.253906 6.820312 12.226562 C 6.804688 12.210938 6.769531 12.199219 6.738281 12.199219 C 6.707031 12.199219 6.679688 12.191406 6.679688 12.179688 C 6.679688 12.167969 6.648438 12.160156 6.609375 12.160156 C 6.574219 12.160156 6.535156 12.152344 6.53125 12.140625 C 6.523438 12.128906 6.492188 12.121094 6.457031 12.121094 C 6.417969 12.121094 6.398438 12.109375 6.398438 12.089844 C 6.398438 12.070312 6.378906 12.058594 6.328125 12.058594 C 6.292969 12.058594 6.261719 12.050781 6.261719 12.039062 C 6.261719 12.027344 6.238281 12.019531 6.210938 12.019531 C 6.1875 12.019531 6.160156 12.007812 6.152344 11.988281 C 6.144531 11.972656 6.121094 11.960938 6.101562 11.960938 C 6.078125 11.960938 6.058594 11.949219 6.058594 11.9375 C 6.058594 11.925781 6.054688 11.921875 6.042969 11.925781 C 6.027344 11.9375 5.894531 11.878906 5.875 11.851562 C 5.871094 11.839844 5.847656 11.832031 5.828125 11.828125 C 5.808594 11.824219 5.789062 11.8125 5.785156 11.800781 C 5.78125 11.789062 5.753906 11.78125 5.726562 11.78125 C 5.703125 11.78125 5.679688 11.769531 5.679688 11.757812 C 5.679688 11.726562 5.617188 11.679688 5.574219 11.679688 C 5.554688 11.679688 5.539062 11.671875 5.539062 11.660156 C 5.539062 11.648438 5.515625 11.640625 5.488281 11.640625 C 5.460938 11.640625 5.441406 11.628906 5.4375 11.613281 C 5.4375 11.589844 5.292969 11.480469 5.257812 11.480469 C 5.246094 11.480469 5.242188 11.472656 5.25 11.460938 C 5.257812 11.449219 5.25 11.441406 5.238281 11.441406 C 5.226562 11.441406 5.183594 11.410156 5.144531 11.371094 C 5.109375 11.332031 5.070312 11.300781 5.058594 11.300781 C 5.046875 11.300781 5.007812 11.269531 4.972656 11.230469 C 4.933594 11.191406 4.894531 11.160156 4.882812 11.160156 C 4.871094 11.160156 4.859375 11.152344 4.859375 11.140625 C 4.859375 11.117188 4.664062 10.921875 4.640625 10.921875 C 4.628906 10.921875 4.621094 10.90625 4.621094 10.890625 C 4.621094 10.875 4.609375 10.859375 4.601562 10.859375 C 4.589844 10.859375 4.578125 10.84375 4.578125 10.828125 C 4.578125 10.808594 4.535156 10.753906 4.484375 10.699219 C 4.429688 10.648438 4.375 10.578125 4.359375 10.542969 C 4.34375 10.507812 4.324219 10.480469 4.320312 10.480469 C 4.3125 10.480469 4.292969 10.449219 4.269531 10.410156 C 4.25 10.371094 4.226562 10.339844 4.21875 10.339844 C 4.207031 10.339844 4.199219 10.324219 4.199219 10.304688 C 4.199219 10.28125 4.175781 10.25 4.148438 10.226562 C 4.121094 10.207031 4.101562 10.171875 4.101562 10.144531 C 4.101562 10.121094 4.09375 10.101562 4.082031 10.101562 C 4.074219 10.101562 4.058594 10.078125 4.050781 10.050781 C 4.042969 10.023438 4.03125 10 4.019531 10 C 4.007812 10 4 9.976562 4 9.949219 C 4 9.921875 3.992188 9.902344 3.980469 9.910156 C 3.972656 9.914062 3.960938 9.894531 3.957031 9.867188 C 3.953125 9.835938 3.9375 9.8125 3.925781 9.816406 C 3.910156 9.816406 3.898438 9.800781 3.898438 9.769531 C 3.898438 9.742188 3.890625 9.71875 3.878906 9.71875 C 3.867188 9.71875 3.859375 9.6875 3.859375 9.648438 C 3.859375 9.613281 3.851562 9.578125 3.839844 9.578125 C 3.828125 9.578125 3.820312 9.558594 3.820312 9.53125 C 3.820312 9.5 3.808594 9.480469 3.789062 9.480469 C 3.769531 9.480469 3.761719 9.460938 3.761719 9.410156 C 3.761719 9.375 3.75 9.335938 3.738281 9.328125 C 3.730469 9.324219 3.71875 9.285156 3.71875 9.25 C 3.71875 9.199219 3.710938 9.179688 3.691406 9.179688 C 3.667969 9.179688 3.660156 9.15625 3.660156 9.089844 C 3.660156 9.039062 3.652344 9 3.640625 9 C 3.628906 9 3.621094 8.945312 3.621094 8.878906 C 3.621094 8.8125 3.609375 8.761719 3.601562 8.761719 C 3.589844 8.761719 3.578125 8.695312 3.578125 8.613281 C 3.578125 8.507812 3.570312 8.453125 3.550781 8.433594 C 3.527344 8.410156 3.519531 8.359375 3.519531 8.242188 C 3.519531 8.09375 3.515625 8.082031 3.476562 8.074219 C 3.425781 8.058594 1.703125 8.0625 1.613281 8.074219 M 12.734375 8.074219 C 13 8.078125 13.4375 8.078125 13.703125 8.074219 C 13.972656 8.070312 13.753906 8.070312 13.21875 8.070312 C 12.6875 8.070312 12.46875 8.070312 12.734375 8.074219 "
            style=" stroke:none;fill-rule:evenodd;fill:rgb(17.254902%,70.196078%,48.627451%);fill-opacity:1;"></path>
        <path
            d="M 7.660156 1.679688 C 7.660156 1.691406 7.546875 1.699219 7.359375 1.699219 C 7.109375 1.699219 7.058594 1.707031 7.046875 1.730469 C 7.039062 1.753906 7 1.761719 6.886719 1.761719 C 6.800781 1.761719 6.738281 1.769531 6.738281 1.78125 C 6.738281 1.792969 6.6875 1.800781 6.621094 1.800781 C 6.554688 1.800781 6.5 1.808594 6.5 1.820312 C 6.5 1.832031 6.460938 1.839844 6.410156 1.839844 C 6.347656 1.839844 6.316406 1.847656 6.308594 1.871094 C 6.300781 1.890625 6.265625 1.898438 6.207031 1.898438 C 6.160156 1.898438 6.121094 1.910156 6.121094 1.921875 C 6.121094 1.929688 6.089844 1.941406 6.050781 1.941406 C 6 1.941406 5.980469 1.949219 5.980469 1.96875 C 5.980469 1.992188 5.957031 2 5.898438 2 C 5.855469 2 5.820312 2.007812 5.820312 2.019531 C 5.820312 2.03125 5.789062 2.039062 5.75 2.039062 C 5.710938 2.039062 5.679688 2.050781 5.679688 2.058594 C 5.679688 2.070312 5.65625 2.078125 5.632812 2.078125 C 5.605469 2.078125 5.570312 2.09375 5.554688 2.109375 C 5.535156 2.125 5.503906 2.140625 5.480469 2.140625 C 5.457031 2.140625 5.441406 2.148438 5.441406 2.160156 C 5.441406 2.171875 5.414062 2.179688 5.378906 2.179688 C 5.34375 2.179688 5.3125 2.191406 5.308594 2.210938 C 5.300781 2.226562 5.273438 2.238281 5.246094 2.238281 C 5.222656 2.238281 5.199219 2.25 5.199219 2.261719 C 5.199219 2.269531 5.183594 2.28125 5.160156 2.28125 C 5.136719 2.28125 5.121094 2.289062 5.121094 2.300781 C 5.121094 2.3125 5.101562 2.320312 5.078125 2.320312 C 5.058594 2.320312 5.035156 2.332031 5.027344 2.351562 C 5.019531 2.367188 4.996094 2.378906 4.96875 2.378906 C 4.941406 2.378906 4.921875 2.390625 4.921875 2.398438 C 4.921875 2.410156 4.902344 2.421875 4.878906 2.421875 C 4.855469 2.421875 4.832031 2.433594 4.828125 2.449219 C 4.820312 2.464844 4.800781 2.480469 4.78125 2.480469 C 4.761719 2.480469 4.726562 2.496094 4.703125 2.519531 C 4.679688 2.542969 4.648438 2.558594 4.628906 2.558594 C 4.613281 2.558594 4.59375 2.574219 4.585938 2.589844 C 4.582031 2.605469 4.558594 2.621094 4.539062 2.621094 C 4.515625 2.621094 4.5 2.628906 4.5 2.640625 C 4.5 2.652344 4.488281 2.660156 4.46875 2.660156 C 4.453125 2.660156 4.441406 2.671875 4.441406 2.691406 C 4.441406 2.707031 4.421875 2.71875 4.402344 2.71875 C 4.382812 2.71875 4.347656 2.738281 4.324219 2.761719 C 4.300781 2.78125 4.273438 2.800781 4.261719 2.800781 C 4.25 2.800781 4.21875 2.824219 4.191406 2.851562 C 4.164062 2.878906 4.132812 2.898438 4.121094 2.898438 C 4.109375 2.898438 4.101562 2.914062 4.101562 2.929688 C 4.101562 2.945312 4.082031 2.960938 4.058594 2.960938 C 4.039062 2.960938 4.019531 2.96875 4.019531 2.980469 C 4.019531 2.992188 4.011719 3 4 3 C 3.988281 3 3.949219 3.03125 3.910156 3.070312 C 3.875 3.109375 3.835938 3.140625 3.824219 3.140625 C 3.816406 3.140625 3.75 3.195312 3.683594 3.261719 C 3.613281 3.324219 3.550781 3.378906 3.539062 3.378906 C 3.527344 3.378906 3.519531 3.390625 3.519531 3.402344 C 3.519531 3.429688 3.429688 3.519531 3.402344 3.519531 C 3.390625 3.519531 3.378906 3.53125 3.378906 3.542969 C 3.378906 3.570312 3.328125 3.621094 3.300781 3.621094 C 3.289062 3.621094 3.28125 3.628906 3.28125 3.640625 C 3.28125 3.648438 3.226562 3.714844 3.160156 3.78125 C 3.09375 3.847656 3.039062 3.914062 3.039062 3.929688 C 3.039062 3.941406 3.023438 3.964844 3 3.980469 C 2.976562 3.996094 2.960938 4.019531 2.960938 4.035156 C 2.960938 4.046875 2.949219 4.058594 2.9375 4.058594 C 2.90625 4.058594 2.863281 4.121094 2.859375 4.164062 C 2.859375 4.183594 2.851562 4.199219 2.839844 4.199219 C 2.8125 4.199219 2.761719 4.25 2.761719 4.277344 C 2.761719 4.289062 2.75 4.300781 2.738281 4.300781 C 2.730469 4.300781 2.71875 4.3125 2.71875 4.332031 C 2.71875 4.347656 2.699219 4.382812 2.671875 4.410156 C 2.640625 4.433594 2.621094 4.472656 2.621094 4.496094 C 2.621094 4.519531 2.609375 4.539062 2.597656 4.539062 C 2.566406 4.539062 2.519531 4.59375 2.519531 4.628906 C 2.519531 4.648438 2.496094 4.6875 2.46875 4.714844 C 2.441406 4.746094 2.421875 4.78125 2.421875 4.792969 C 2.421875 4.808594 2.410156 4.820312 2.398438 4.820312 C 2.390625 4.820312 2.378906 4.839844 2.378906 4.867188 C 2.378906 4.894531 2.367188 4.921875 2.351562 4.925781 C 2.332031 4.933594 2.320312 4.957031 2.320312 4.980469 C 2.320312 5 2.3125 5.019531 2.300781 5.019531 C 2.289062 5.019531 2.28125 5.039062 2.28125 5.058594 C 2.28125 5.082031 2.269531 5.101562 2.261719 5.101562 C 2.25 5.101562 2.238281 5.121094 2.238281 5.148438 C 2.238281 5.179688 2.230469 5.199219 2.210938 5.199219 C 2.191406 5.199219 2.179688 5.21875 2.179688 5.25 C 2.179688 5.277344 2.171875 5.300781 2.160156 5.300781 C 2.148438 5.300781 2.140625 5.320312 2.140625 5.347656 C 2.140625 5.375 2.125 5.402344 2.109375 5.40625 C 2.09375 5.414062 2.078125 5.4375 2.078125 5.460938 C 2.078125 5.480469 2.070312 5.5 2.058594 5.5 C 2.050781 5.5 2.039062 5.53125 2.039062 5.570312 C 2.039062 5.609375 2.03125 5.640625 2.019531 5.640625 C 2.007812 5.640625 2 5.664062 2 5.691406 C 2 5.722656 1.988281 5.738281 1.96875 5.738281 C 1.949219 5.738281 1.941406 5.761719 1.941406 5.808594 C 1.941406 5.847656 1.929688 5.878906 1.921875 5.878906 C 1.910156 5.878906 1.898438 5.910156 1.898438 5.949219 C 1.898438 5.988281 1.886719 6.019531 1.871094 6.027344 C 1.851562 6.035156 1.839844 6.0625 1.839844 6.097656 C 1.839844 6.132812 1.832031 6.164062 1.820312 6.171875 C 1.808594 6.175781 1.800781 6.222656 1.800781 6.269531 C 1.800781 6.320312 1.789062 6.359375 1.78125 6.359375 C 1.769531 6.359375 1.761719 6.398438 1.761719 6.449219 C 1.761719 6.507812 1.75 6.539062 1.730469 6.546875 C 1.710938 6.554688 1.699219 6.585938 1.699219 6.648438 C 1.699219 6.699219 1.691406 6.738281 1.679688 6.738281 C 1.667969 6.738281 1.660156 6.800781 1.660156 6.878906 C 1.660156 6.976562 1.652344 7.023438 1.628906 7.039062 C 1.605469 7.058594 1.601562 7.109375 1.601562 7.261719 C 1.601562 7.378906 1.59375 7.460938 1.578125 7.460938 C 1.566406 7.460938 1.558594 7.574219 1.558594 7.765625 L 1.558594 8.070312 L 3.519531 8.070312 L 3.519531 7.855469 C 3.519531 7.6875 3.527344 7.640625 3.550781 7.632812 C 3.574219 7.625 3.578125 7.585938 3.578125 7.472656 C 3.578125 7.390625 3.589844 7.316406 3.601562 7.308594 C 3.609375 7.304688 3.621094 7.25 3.621094 7.1875 C 3.621094 7.128906 3.628906 7.078125 3.640625 7.078125 C 3.652344 7.078125 3.660156 7.035156 3.660156 6.980469 C 3.660156 6.90625 3.667969 6.878906 3.691406 6.878906 C 3.710938 6.878906 3.71875 6.859375 3.71875 6.808594 C 3.71875 6.773438 3.730469 6.738281 3.738281 6.738281 C 3.75 6.738281 3.761719 6.710938 3.761719 6.679688 C 3.761719 6.644531 3.773438 6.605469 3.789062 6.585938 C 3.804688 6.570312 3.820312 6.53125 3.820312 6.5 C 3.820312 6.464844 3.828125 6.441406 3.839844 6.441406 C 3.851562 6.441406 3.859375 6.421875 3.859375 6.402344 C 3.859375 6.378906 3.867188 6.355469 3.878906 6.351562 C 3.890625 6.34375 3.898438 6.320312 3.898438 6.300781 C 3.898438 6.28125 3.914062 6.257812 3.929688 6.253906 C 3.945312 6.246094 3.960938 6.222656 3.960938 6.203125 C 3.960938 6.179688 3.96875 6.15625 3.980469 6.148438 C 3.992188 6.144531 4 6.121094 4 6.097656 C 4 6.078125 4.007812 6.058594 4.019531 6.058594 C 4.03125 6.058594 4.042969 6.039062 4.050781 6.011719 C 4.058594 5.984375 4.074219 5.960938 4.082031 5.960938 C 4.09375 5.960938 4.101562 5.941406 4.101562 5.921875 C 4.101562 5.898438 4.109375 5.878906 4.121094 5.878906 C 4.132812 5.878906 4.140625 5.859375 4.140625 5.828125 C 4.140625 5.800781 4.152344 5.78125 4.171875 5.78125 C 4.1875 5.78125 4.199219 5.765625 4.199219 5.75 C 4.199219 5.734375 4.210938 5.71875 4.21875 5.71875 C 4.230469 5.71875 4.238281 5.707031 4.238281 5.6875 C 4.238281 5.671875 4.261719 5.636719 4.289062 5.613281 C 4.316406 5.585938 4.339844 5.550781 4.339844 5.53125 C 4.339844 5.515625 4.347656 5.5 4.359375 5.5 C 4.371094 5.5 4.378906 5.488281 4.378906 5.46875 C 4.378906 5.453125 4.394531 5.441406 4.410156 5.441406 C 4.425781 5.441406 4.441406 5.433594 4.441406 5.425781 C 4.441406 5.417969 4.460938 5.382812 4.488281 5.351562 C 4.515625 5.320312 4.539062 5.285156 4.539062 5.277344 C 4.539062 5.253906 5.117188 4.679688 5.140625 4.679688 C 5.148438 4.679688 5.179688 4.65625 5.207031 4.628906 C 5.234375 4.601562 5.269531 4.578125 5.277344 4.578125 C 5.289062 4.578125 5.300781 4.570312 5.300781 4.5625 C 5.300781 4.550781 5.316406 4.539062 5.339844 4.53125 C 5.359375 4.523438 5.410156 4.488281 5.449219 4.449219 C 5.488281 4.410156 5.535156 4.378906 5.550781 4.378906 C 5.566406 4.378906 5.578125 4.371094 5.578125 4.359375 C 5.578125 4.347656 5.597656 4.339844 5.617188 4.339844 C 5.636719 4.339844 5.679688 4.316406 5.707031 4.289062 C 5.738281 4.261719 5.773438 4.238281 5.792969 4.238281 C 5.808594 4.238281 5.820312 4.230469 5.820312 4.21875 C 5.820312 4.210938 5.84375 4.199219 5.871094 4.199219 C 5.902344 4.199219 5.921875 4.1875 5.921875 4.171875 C 5.921875 4.152344 5.9375 4.140625 5.96875 4.140625 C 5.996094 4.140625 6.019531 4.132812 6.019531 4.121094 C 6.019531 4.109375 6.039062 4.101562 6.058594 4.101562 C 6.082031 4.101562 6.101562 4.089844 6.109375 4.078125 C 6.117188 4.070312 6.140625 4.058594 6.160156 4.058594 C 6.179688 4.058594 6.199219 4.046875 6.207031 4.03125 C 6.214844 4.011719 6.242188 4 6.277344 4 C 6.3125 4 6.34375 3.992188 6.351562 3.980469 C 6.355469 3.96875 6.382812 3.960938 6.410156 3.960938 C 6.4375 3.960938 6.46875 3.945312 6.488281 3.929688 C 6.503906 3.914062 6.542969 3.898438 6.578125 3.898438 C 6.613281 3.898438 6.640625 3.890625 6.640625 3.878906 C 6.640625 3.867188 6.671875 3.859375 6.710938 3.859375 C 6.75 3.859375 6.78125 3.851562 6.78125 3.839844 C 6.78125 3.828125 6.820312 3.820312 6.871094 3.820312 C 6.933594 3.820312 6.964844 3.8125 6.972656 3.789062 C 6.980469 3.765625 7.019531 3.761719 7.121094 3.761719 C 7.199219 3.761719 7.261719 3.75 7.261719 3.738281 C 7.261719 3.726562 7.34375 3.71875 7.46875 3.71875 C 7.640625 3.71875 7.683594 3.714844 7.691406 3.691406 C 7.699219 3.667969 7.734375 3.660156 7.792969 3.660156 L 7.878906 3.660156 L 7.878906 1.660156 L 7.769531 1.660156 C 7.710938 1.660156 7.660156 1.667969 7.660156 1.679688 "
            style=" stroke:none;fill-rule:evenodd;fill:rgb(98.431373%,64.313725%,7.45098%);fill-opacity:1;"></path>
        <path
            d="M 7.878906 1.667969 C 7.875 1.671875 7.871094 2.121094 7.875 2.667969 L 7.878906 3.660156 L 7.976562 3.660156 C 8.046875 3.660156 8.078125 3.667969 8.085938 3.691406 C 8.097656 3.714844 8.140625 3.71875 8.308594 3.71875 C 8.4375 3.71875 8.519531 3.726562 8.519531 3.738281 C 8.519531 3.75 8.578125 3.761719 8.65625 3.761719 C 8.761719 3.761719 8.796875 3.765625 8.808594 3.789062 C 8.816406 3.8125 8.847656 3.820312 8.910156 3.820312 C 8.960938 3.820312 9 3.828125 9 3.839844 C 9 3.851562 9.03125 3.859375 9.070312 3.859375 C 9.109375 3.859375 9.140625 3.867188 9.140625 3.878906 C 9.140625 3.890625 9.171875 3.898438 9.207031 3.898438 C 9.25 3.898438 9.28125 3.910156 9.289062 3.929688 C 9.292969 3.949219 9.324219 3.960938 9.359375 3.960938 C 9.394531 3.960938 9.421875 3.96875 9.421875 3.980469 C 9.421875 3.992188 9.449219 4 9.488281 4 C 9.53125 4 9.558594 4.011719 9.566406 4.03125 C 9.574219 4.046875 9.597656 4.058594 9.621094 4.058594 C 9.640625 4.058594 9.660156 4.070312 9.660156 4.078125 C 9.660156 4.089844 9.683594 4.101562 9.710938 4.101562 C 9.738281 4.101562 9.761719 4.109375 9.761719 4.121094 C 9.761719 4.132812 9.78125 4.140625 9.808594 4.140625 C 9.839844 4.140625 9.859375 4.152344 9.859375 4.171875 C 9.859375 4.1875 9.878906 4.199219 9.910156 4.199219 C 9.9375 4.199219 9.960938 4.210938 9.960938 4.21875 C 9.960938 4.230469 9.972656 4.238281 9.992188 4.238281 C 10.007812 4.238281 10.042969 4.261719 10.066406 4.289062 C 10.09375 4.316406 10.132812 4.339844 10.15625 4.339844 C 10.179688 4.339844 10.199219 4.347656 10.199219 4.359375 C 10.199219 4.371094 10.214844 4.378906 10.230469 4.378906 C 10.246094 4.378906 10.28125 4.402344 10.304688 4.425781 C 10.332031 4.453125 10.378906 4.492188 10.410156 4.511719 C 10.488281 4.5625 10.539062 4.601562 10.578125 4.644531 C 10.59375 4.664062 10.621094 4.679688 10.632812 4.679688 C 10.660156 4.679688 11.101562 5.113281 11.101562 5.140625 C 11.101562 5.152344 11.109375 5.160156 11.121094 5.160156 C 11.144531 5.160156 11.199219 5.210938 11.199219 5.230469 C 11.199219 5.238281 11.210938 5.253906 11.226562 5.269531 C 11.28125 5.332031 11.300781 5.359375 11.300781 5.371094 C 11.300781 5.390625 11.355469 5.441406 11.378906 5.441406 C 11.390625 5.441406 11.398438 5.453125 11.398438 5.46875 C 11.398438 5.488281 11.410156 5.5 11.421875 5.5 C 11.429688 5.5 11.441406 5.515625 11.441406 5.53125 C 11.441406 5.550781 11.460938 5.585938 11.488281 5.613281 C 11.515625 5.636719 11.539062 5.671875 11.539062 5.6875 C 11.539062 5.707031 11.550781 5.71875 11.558594 5.71875 C 11.570312 5.71875 11.578125 5.734375 11.578125 5.75 C 11.578125 5.765625 11.59375 5.78125 11.609375 5.78125 C 11.628906 5.78125 11.640625 5.800781 11.640625 5.828125 C 11.640625 5.859375 11.648438 5.878906 11.660156 5.878906 C 11.671875 5.878906 11.679688 5.898438 11.679688 5.921875 C 11.679688 5.941406 11.6875 5.960938 11.699219 5.960938 C 11.707031 5.960938 11.722656 5.984375 11.726562 6.011719 C 11.734375 6.039062 11.75 6.058594 11.761719 6.058594 C 11.769531 6.058594 11.78125 6.082031 11.78125 6.109375 C 11.78125 6.136719 11.789062 6.160156 11.800781 6.160156 C 11.8125 6.160156 11.820312 6.179688 11.820312 6.199219 C 11.820312 6.222656 11.832031 6.246094 11.851562 6.253906 C 11.867188 6.257812 11.878906 6.285156 11.878906 6.3125 C 11.878906 6.339844 11.890625 6.359375 11.898438 6.359375 C 11.910156 6.359375 11.921875 6.378906 11.921875 6.398438 C 11.921875 6.421875 11.929688 6.441406 11.941406 6.441406 C 11.949219 6.441406 11.960938 6.472656 11.960938 6.511719 C 11.960938 6.554688 11.972656 6.585938 11.988281 6.59375 C 12.007812 6.601562 12.019531 6.628906 12.019531 6.671875 C 12.019531 6.710938 12.027344 6.738281 12.039062 6.738281 C 12.050781 6.738281 12.058594 6.773438 12.058594 6.808594 C 12.058594 6.859375 12.070312 6.878906 12.089844 6.878906 C 12.113281 6.878906 12.121094 6.90625 12.121094 6.980469 C 12.121094 7.035156 12.128906 7.078125 12.140625 7.078125 C 12.152344 7.078125 12.160156 7.128906 12.160156 7.1875 C 12.160156 7.25 12.167969 7.304688 12.179688 7.308594 C 12.191406 7.316406 12.199219 7.394531 12.199219 7.480469 C 12.199219 7.609375 12.207031 7.640625 12.230469 7.640625 C 12.253906 7.640625 12.261719 7.675781 12.261719 7.851562 L 12.261719 8.058594 L 13.207031 8.058594 C 13.730469 8.058594 14.171875 8.066406 14.1875 8.070312 C 14.214844 8.082031 14.21875 8.046875 14.21875 7.773438 C 14.21875 7.578125 14.210938 7.460938 14.199219 7.460938 C 14.1875 7.460938 14.179688 7.378906 14.179688 7.261719 C 14.179688 7.113281 14.171875 7.054688 14.148438 7.03125 C 14.128906 7.011719 14.121094 6.960938 14.121094 6.871094 C 14.121094 6.796875 14.109375 6.738281 14.101562 6.738281 C 14.089844 6.738281 14.078125 6.699219 14.078125 6.648438 C 14.078125 6.585938 14.070312 6.554688 14.050781 6.546875 C 14.03125 6.539062 14.019531 6.507812 14.019531 6.449219 C 14.019531 6.398438 14.011719 6.359375 14 6.359375 C 13.988281 6.359375 13.980469 6.316406 13.980469 6.261719 C 13.980469 6.203125 13.972656 6.160156 13.960938 6.160156 C 13.949219 6.160156 13.941406 6.132812 13.941406 6.097656 C 13.941406 6.0625 13.925781 6.035156 13.910156 6.027344 C 13.890625 6.019531 13.878906 5.988281 13.878906 5.949219 C 13.878906 5.910156 13.871094 5.878906 13.859375 5.878906 C 13.847656 5.878906 13.839844 5.847656 13.839844 5.808594 C 13.839844 5.761719 13.832031 5.738281 13.808594 5.738281 C 13.792969 5.738281 13.78125 5.722656 13.78125 5.691406 C 13.78125 5.664062 13.769531 5.640625 13.761719 5.640625 C 13.75 5.640625 13.738281 5.609375 13.738281 5.570312 C 13.738281 5.53125 13.730469 5.5 13.71875 5.5 C 13.710938 5.5 13.699219 5.476562 13.699219 5.449219 C 13.699219 5.417969 13.6875 5.398438 13.671875 5.398438 C 13.652344 5.398438 13.640625 5.382812 13.640625 5.351562 C 13.640625 5.324219 13.632812 5.300781 13.621094 5.300781 C 13.609375 5.300781 13.601562 5.277344 13.601562 5.25 C 13.601562 5.21875 13.589844 5.199219 13.570312 5.199219 C 13.550781 5.199219 13.539062 5.179688 13.539062 5.148438 C 13.539062 5.121094 13.53125 5.101562 13.519531 5.101562 C 13.507812 5.101562 13.5 5.082031 13.5 5.058594 C 13.5 5.039062 13.492188 5.019531 13.480469 5.019531 C 13.46875 5.019531 13.460938 4.996094 13.460938 4.96875 C 13.460938 4.9375 13.449219 4.921875 13.429688 4.921875 C 13.410156 4.921875 13.398438 4.902344 13.398438 4.871094 C 13.398438 4.84375 13.390625 4.820312 13.378906 4.820312 C 13.367188 4.820312 13.359375 4.804688 13.359375 4.78125 C 13.359375 4.761719 13.335938 4.730469 13.308594 4.707031 C 13.28125 4.6875 13.261719 4.652344 13.261719 4.632812 C 13.261719 4.59375 13.214844 4.539062 13.179688 4.539062 C 13.167969 4.539062 13.160156 4.519531 13.160156 4.496094 C 13.160156 4.472656 13.136719 4.433594 13.109375 4.410156 C 13.082031 4.382812 13.058594 4.347656 13.058594 4.332031 C 13.058594 4.3125 13.050781 4.300781 13.039062 4.300781 C 13.027344 4.300781 13.019531 4.289062 13.019531 4.277344 C 13.019531 4.25 12.96875 4.199219 12.941406 4.199219 C 12.929688 4.199219 12.921875 4.179688 12.921875 4.160156 C 12.921875 4.113281 12.875 4.058594 12.839844 4.058594 C 12.828125 4.058594 12.820312 4.046875 12.820312 4.035156 C 12.820312 4.019531 12.800781 3.996094 12.78125 3.980469 C 12.757812 3.964844 12.738281 3.941406 12.738281 3.925781 C 12.738281 3.914062 12.6875 3.847656 12.621094 3.777344 C 12.554688 3.710938 12.5 3.648438 12.5 3.636719 C 12.5 3.628906 12.492188 3.621094 12.480469 3.621094 C 12.449219 3.621094 12.398438 3.570312 12.398438 3.542969 C 12.398438 3.53125 12.390625 3.519531 12.378906 3.519531 C 12.351562 3.519531 12.261719 3.421875 12.261719 3.394531 C 12.261719 3.386719 12.25 3.378906 12.238281 3.378906 C 12.230469 3.378906 12.164062 3.324219 12.101562 3.261719 C 12.035156 3.195312 11.96875 3.140625 11.960938 3.140625 C 11.949219 3.140625 11.898438 3.097656 11.847656 3.050781 C 11.796875 3 11.742188 2.960938 11.726562 2.960938 C 11.710938 2.960938 11.695312 2.945312 11.6875 2.929688 C 11.679688 2.914062 11.667969 2.898438 11.65625 2.898438 C 11.648438 2.898438 11.617188 2.878906 11.589844 2.851562 C 11.5625 2.824219 11.527344 2.800781 11.511719 2.800781 C 11.5 2.800781 11.476562 2.78125 11.460938 2.761719 C 11.445312 2.738281 11.410156 2.71875 11.386719 2.71875 C 11.359375 2.71875 11.339844 2.710938 11.339844 2.695312 C 11.339844 2.667969 11.277344 2.621094 11.238281 2.621094 C 11.21875 2.621094 11.199219 2.605469 11.191406 2.589844 C 11.1875 2.574219 11.167969 2.558594 11.148438 2.558594 C 11.132812 2.558594 11.097656 2.542969 11.074219 2.519531 C 11.050781 2.496094 11.015625 2.480469 10.996094 2.480469 C 10.976562 2.480469 10.960938 2.464844 10.960938 2.449219 C 10.960938 2.429688 10.941406 2.421875 10.910156 2.421875 C 10.882812 2.421875 10.859375 2.410156 10.859375 2.398438 C 10.859375 2.390625 10.835938 2.378906 10.808594 2.378906 C 10.777344 2.378906 10.761719 2.367188 10.761719 2.351562 C 10.761719 2.332031 10.742188 2.320312 10.710938 2.320312 C 10.683594 2.320312 10.660156 2.3125 10.660156 2.300781 C 10.660156 2.289062 10.640625 2.28125 10.621094 2.28125 C 10.597656 2.28125 10.578125 2.269531 10.578125 2.261719 C 10.578125 2.25 10.558594 2.238281 10.53125 2.238281 C 10.503906 2.238281 10.480469 2.226562 10.472656 2.210938 C 10.464844 2.191406 10.4375 2.179688 10.402344 2.179688 C 10.367188 2.179688 10.339844 2.171875 10.339844 2.160156 C 10.339844 2.148438 10.320312 2.140625 10.292969 2.140625 C 10.265625 2.140625 10.238281 2.125 10.234375 2.109375 C 10.226562 2.09375 10.195312 2.078125 10.160156 2.078125 C 10.128906 2.078125 10.101562 2.070312 10.101562 2.058594 C 10.101562 2.050781 10.070312 2.039062 10.03125 2.039062 C 9.992188 2.039062 9.960938 2.03125 9.960938 2.019531 C 9.960938 2.007812 9.925781 2 9.878906 2 C 9.820312 2 9.800781 1.992188 9.800781 1.96875 C 9.800781 1.949219 9.777344 1.941406 9.730469 1.941406 C 9.691406 1.941406 9.660156 1.929688 9.660156 1.921875 C 9.660156 1.910156 9.621094 1.898438 9.570312 1.898438 C 9.511719 1.898438 9.480469 1.890625 9.472656 1.871094 C 9.464844 1.847656 9.433594 1.839844 9.371094 1.839844 C 9.320312 1.839844 9.28125 1.832031 9.28125 1.820312 C 9.28125 1.808594 9.226562 1.800781 9.160156 1.800781 C 9.09375 1.800781 9.039062 1.792969 9.039062 1.78125 C 9.039062 1.769531 8.976562 1.761719 8.890625 1.761719 C 8.769531 1.761719 8.738281 1.753906 8.738281 1.730469 C 8.738281 1.703125 8.691406 1.699219 8.429688 1.699219 C 8.238281 1.699219 8.121094 1.691406 8.121094 1.679688 C 8.121094 1.660156 7.894531 1.648438 7.878906 1.667969 "
            style=" stroke:none;fill-rule:evenodd;fill:rgb(98.823529%,4.705882%,29.411765%);fill-opacity:1;"></path>
        <path
            d="M 12.261719 8.246094 C 12.261719 8.378906 12.253906 8.417969 12.230469 8.425781 C 12.207031 8.4375 12.199219 8.476562 12.199219 8.597656 C 12.199219 8.691406 12.191406 8.761719 12.179688 8.761719 C 12.167969 8.761719 12.160156 8.8125 12.160156 8.878906 C 12.160156 8.945312 12.152344 9 12.140625 9 C 12.128906 9 12.121094 9.03125 12.121094 9.066406 C 12.121094 9.109375 12.109375 9.140625 12.089844 9.148438 C 12.070312 9.15625 12.058594 9.1875 12.058594 9.238281 C 12.058594 9.28125 12.050781 9.324219 12.039062 9.328125 C 12.027344 9.335938 12.019531 9.375 12.019531 9.410156 C 12.019531 9.460938 12.011719 9.480469 11.988281 9.480469 C 11.972656 9.480469 11.960938 9.5 11.960938 9.53125 C 11.960938 9.558594 11.949219 9.578125 11.941406 9.578125 C 11.929688 9.578125 11.921875 9.613281 11.921875 9.648438 C 11.921875 9.6875 11.910156 9.71875 11.898438 9.71875 C 11.890625 9.71875 11.878906 9.738281 11.878906 9.757812 C 11.878906 9.777344 11.867188 9.800781 11.851562 9.808594 C 11.832031 9.8125 11.820312 9.835938 11.820312 9.859375 C 11.820312 9.882812 11.8125 9.898438 11.800781 9.898438 C 11.789062 9.898438 11.78125 9.921875 11.78125 9.949219 C 11.78125 9.972656 11.765625 10 11.75 10.007812 C 11.734375 10.011719 11.71875 10.035156 11.71875 10.058594 C 11.71875 10.082031 11.710938 10.101562 11.699219 10.101562 C 11.6875 10.101562 11.679688 10.121094 11.679688 10.144531 C 11.679688 10.171875 11.65625 10.207031 11.628906 10.226562 C 11.601562 10.25 11.578125 10.277344 11.578125 10.292969 C 11.578125 10.308594 11.558594 10.34375 11.53125 10.371094 C 11.503906 10.398438 11.480469 10.429688 11.480469 10.441406 C 11.480469 10.453125 11.460938 10.480469 11.441406 10.503906 C 11.417969 10.527344 11.398438 10.5625 11.398438 10.582031 C 11.398438 10.605469 11.386719 10.621094 11.371094 10.621094 C 11.351562 10.621094 11.339844 10.628906 11.339844 10.640625 C 11.339844 10.652344 11.308594 10.691406 11.269531 10.730469 C 11.230469 10.765625 11.199219 10.808594 11.199219 10.828125 C 11.199219 10.84375 11.191406 10.859375 11.179688 10.859375 C 11.167969 10.859375 11.160156 10.875 11.160156 10.890625 C 11.160156 10.90625 11.152344 10.921875 11.140625 10.921875 C 11.113281 10.921875 10.921875 11.113281 10.921875 11.140625 C 10.921875 11.152344 10.910156 11.160156 10.898438 11.160156 C 10.886719 11.160156 10.847656 11.191406 10.808594 11.230469 C 10.769531 11.269531 10.730469 11.300781 10.71875 11.300781 C 10.703125 11.300781 10.664062 11.332031 10.628906 11.371094 C 10.59375 11.410156 10.558594 11.441406 10.550781 11.441406 C 10.542969 11.441406 10.523438 11.453125 10.507812 11.464844 C 10.449219 11.519531 10.421875 11.539062 10.410156 11.539062 C 10.390625 11.539062 10.339844 11.59375 10.339844 11.617188 C 10.339844 11.628906 10.316406 11.640625 10.289062 11.640625 C 10.261719 11.640625 10.238281 11.648438 10.238281 11.660156 C 10.238281 11.671875 10.222656 11.679688 10.203125 11.679688 C 10.160156 11.679688 10.101562 11.726562 10.101562 11.757812 C 10.101562 11.769531 10.078125 11.78125 10.050781 11.78125 C 10.023438 11.78125 10 11.789062 10 11.800781 C 10 11.8125 9.980469 11.820312 9.960938 11.820312 C 9.9375 11.820312 9.914062 11.832031 9.90625 11.851562 C 9.902344 11.867188 9.878906 11.878906 9.859375 11.878906 C 9.835938 11.878906 9.820312 11.890625 9.820312 11.898438 C 9.820312 11.910156 9.796875 11.921875 9.769531 11.921875 C 9.742188 11.921875 9.71875 11.929688 9.71875 11.941406 C 9.71875 11.949219 9.703125 11.960938 9.679688 11.960938 C 9.65625 11.960938 9.632812 11.972656 9.628906 11.988281 C 9.621094 12.007812 9.59375 12.019531 9.566406 12.019531 C 9.542969 12.019531 9.519531 12.027344 9.519531 12.039062 C 9.519531 12.050781 9.488281 12.058594 9.449219 12.058594 C 9.402344 12.058594 9.378906 12.070312 9.378906 12.089844 C 9.378906 12.109375 9.359375 12.121094 9.308594 12.121094 C 9.273438 12.121094 9.238281 12.128906 9.238281 12.140625 C 9.238281 12.152344 9.207031 12.160156 9.171875 12.160156 C 9.132812 12.160156 9.101562 12.167969 9.101562 12.179688 C 9.101562 12.191406 9.066406 12.199219 9.03125 12.199219 C 8.984375 12.199219 8.953125 12.210938 8.945312 12.230469 C 8.9375 12.25 8.90625 12.261719 8.828125 12.261719 C 8.769531 12.261719 8.71875 12.269531 8.710938 12.28125 C 8.703125 12.289062 8.640625 12.300781 8.566406 12.300781 C 8.472656 12.300781 8.4375 12.308594 8.425781 12.328125 C 8.417969 12.355469 8.367188 12.359375 8.136719 12.359375 L 7.859375 12.359375 L 7.859375 14.359375 L 8.230469 14.359375 C 8.464844 14.359375 8.601562 14.351562 8.601562 14.339844 C 8.601562 14.328125 8.671875 14.320312 8.769531 14.320312 C 8.90625 14.320312 8.941406 14.3125 8.941406 14.289062 C 8.941406 14.265625 8.96875 14.261719 9.078125 14.261719 C 9.15625 14.261719 9.222656 14.25 9.230469 14.238281 C 9.238281 14.230469 9.28125 14.21875 9.332031 14.21875 C 9.378906 14.21875 9.421875 14.210938 9.421875 14.199219 C 9.421875 14.1875 9.460938 14.179688 9.511719 14.179688 C 9.574219 14.179688 9.605469 14.171875 9.613281 14.148438 C 9.621094 14.132812 9.648438 14.121094 9.691406 14.121094 C 9.730469 14.121094 9.761719 14.109375 9.761719 14.101562 C 9.761719 14.089844 9.800781 14.078125 9.851562 14.078125 C 9.917969 14.078125 9.941406 14.070312 9.941406 14.050781 C 9.941406 14.03125 9.957031 14.019531 9.988281 14.019531 C 10.015625 14.019531 10.039062 14.011719 10.039062 14 C 10.039062 13.988281 10.066406 13.980469 10.101562 13.980469 C 10.132812 13.980469 10.175781 13.972656 10.195312 13.964844 C 10.214844 13.953125 10.261719 13.933594 10.296875 13.914062 C 10.332031 13.894531 10.375 13.878906 10.390625 13.878906 C 10.40625 13.878906 10.421875 13.871094 10.421875 13.859375 C 10.421875 13.847656 10.441406 13.839844 10.46875 13.839844 C 10.5 13.839844 10.519531 13.828125 10.519531 13.808594 C 10.519531 13.792969 10.539062 13.78125 10.570312 13.78125 C 10.597656 13.78125 10.621094 13.769531 10.621094 13.761719 C 10.621094 13.75 10.640625 13.738281 10.671875 13.738281 C 10.699219 13.738281 10.71875 13.730469 10.71875 13.71875 C 10.71875 13.710938 10.738281 13.699219 10.761719 13.699219 C 10.78125 13.699219 10.804688 13.6875 10.8125 13.671875 C 10.820312 13.652344 10.839844 13.640625 10.859375 13.640625 C 10.882812 13.640625 10.902344 13.632812 10.910156 13.621094 C 10.917969 13.609375 10.941406 13.601562 10.960938 13.601562 C 10.984375 13.601562 11 13.585938 11 13.570312 C 11 13.554688 11.019531 13.539062 11.039062 13.539062 C 11.0625 13.539062 11.101562 13.523438 11.125 13.5 C 11.148438 13.476562 11.183594 13.460938 11.203125 13.460938 C 11.222656 13.460938 11.238281 13.445312 11.238281 13.429688 C 11.238281 13.414062 11.257812 13.398438 11.285156 13.398438 C 11.308594 13.398438 11.347656 13.378906 11.367188 13.351562 C 11.390625 13.324219 11.421875 13.300781 11.441406 13.300781 C 11.464844 13.300781 11.480469 13.289062 11.480469 13.28125 C 11.480469 13.269531 11.488281 13.261719 11.5 13.261719 C 11.519531 13.261719 11.542969 13.246094 11.609375 13.183594 C 11.625 13.171875 11.644531 13.160156 11.648438 13.160156 C 11.671875 13.160156 11.71875 13.105469 11.71875 13.082031 C 11.71875 13.070312 11.734375 13.058594 11.75 13.058594 C 11.765625 13.058594 11.78125 13.050781 11.78125 13.039062 C 11.78125 13.027344 11.792969 13.019531 11.8125 13.019531 C 11.832031 13.019531 11.875 12.988281 11.910156 12.949219 C 11.949219 12.910156 11.988281 12.878906 12 12.878906 C 12.011719 12.878906 12.019531 12.867188 12.019531 12.851562 C 12.019531 12.832031 12.027344 12.820312 12.039062 12.820312 C 12.050781 12.820312 12.058594 12.832031 12.058594 12.851562 C 12.058594 12.867188 12.074219 12.878906 12.089844 12.878906 C 12.109375 12.878906 12.121094 12.902344 12.121094 12.949219 C 12.121094 12.988281 12.128906 13.019531 12.140625 13.019531 C 12.152344 13.019531 12.160156 13.074219 12.160156 13.140625 C 12.160156 13.207031 12.167969 13.261719 12.179688 13.261719 C 12.191406 13.261719 12.199219 13.328125 12.199219 13.421875 C 12.199219 13.546875 12.207031 13.582031 12.230469 13.59375 C 12.25 13.601562 12.261719 13.632812 12.261719 13.710938 C 12.261719 13.769531 12.269531 13.824219 12.28125 13.828125 C 12.289062 13.835938 12.300781 13.859375 12.300781 13.882812 C 12.300781 13.902344 12.3125 13.921875 12.328125 13.921875 C 12.347656 13.921875 12.359375 13.933594 12.359375 13.949219 C 12.359375 13.964844 12.367188 13.980469 12.378906 13.980469 C 12.390625 13.980469 12.398438 13.996094 12.402344 14.015625 C 12.402344 14.058594 12.445312 14.121094 12.476562 14.121094 C 12.488281 14.121094 12.5 14.132812 12.5 14.148438 C 12.5 14.167969 12.507812 14.179688 12.519531 14.179688 C 12.53125 14.179688 12.539062 14.199219 12.539062 14.21875 C 12.539062 14.242188 12.554688 14.261719 12.570312 14.261719 C 12.585938 14.261719 12.601562 14.269531 12.601562 14.28125 C 12.601562 14.308594 12.792969 14.5 12.820312 14.5 C 12.832031 14.5 12.839844 14.507812 12.839844 14.519531 C 12.839844 14.542969 13.511719 15.21875 13.539062 15.21875 C 13.546875 15.21875 13.566406 15.242188 13.578125 15.269531 C 13.597656 15.300781 13.625 15.320312 13.652344 15.320312 C 13.679688 15.320312 13.699219 15.328125 13.699219 15.339844 C 13.699219 15.367188 13.792969 15.460938 13.820312 15.460938 C 13.832031 15.460938 13.839844 15.46875 13.839844 15.480469 C 13.839844 15.507812 13.890625 15.558594 13.917969 15.558594 C 13.929688 15.558594 13.941406 15.570312 13.941406 15.582031 C 13.941406 15.609375 14.03125 15.699219 14.058594 15.699219 C 14.070312 15.699219 14.078125 15.710938 14.078125 15.722656 C 14.078125 15.75 14.132812 15.800781 14.160156 15.800781 C 14.171875 15.800781 14.179688 15.808594 14.179688 15.820312 C 14.179688 15.847656 14.273438 15.941406 14.300781 15.941406 C 14.3125 15.941406 14.320312 15.949219 14.320312 15.960938 C 14.320312 15.988281 14.371094 16.039062 14.398438 16.039062 C 14.410156 16.039062 14.421875 16.050781 14.421875 16.0625 C 14.421875 16.089844 14.511719 16.179688 14.539062 16.179688 C 14.550781 16.179688 14.558594 16.191406 14.558594 16.203125 C 14.558594 16.230469 14.609375 16.28125 14.636719 16.28125 C 14.648438 16.28125 14.660156 16.285156 14.660156 16.296875 C 14.660156 16.320312 14.753906 16.421875 14.777344 16.421875 C 14.789062 16.421875 14.800781 16.429688 14.800781 16.441406 C 14.800781 16.46875 14.851562 16.519531 14.878906 16.519531 C 14.890625 16.519531 14.898438 16.527344 14.898438 16.535156 C 14.898438 16.5625 14.992188 16.660156 15.015625 16.660156 C 15.03125 16.660156 15.039062 16.667969 15.039062 16.679688 C 15.039062 16.703125 15.089844 16.761719 15.109375 16.761719 C 15.125 16.761719 15.179688 16.8125 15.179688 16.828125 C 15.179688 16.851562 15.234375 16.898438 15.257812 16.898438 C 15.269531 16.898438 15.28125 16.910156 15.28125 16.921875 C 15.28125 16.945312 15.328125 17 15.351562 17 C 15.367188 17 15.421875 17.054688 15.421875 17.070312 C 15.421875 17.089844 15.476562 17.140625 15.5 17.140625 C 15.511719 17.140625 15.519531 17.148438 15.519531 17.160156 C 15.519531 17.183594 15.570312 17.238281 15.589844 17.238281 C 15.605469 17.238281 15.660156 17.292969 15.660156 17.308594 C 15.660156 17.332031 15.714844 17.378906 15.738281 17.378906 C 15.75 17.378906 15.761719 17.390625 15.761719 17.402344 C 15.761719 17.425781 15.808594 17.480469 15.828125 17.480469 C 15.847656 17.480469 15.898438 17.535156 15.898438 17.550781 C 15.898438 17.570312 15.957031 17.621094 15.980469 17.621094 C 15.992188 17.621094 16 17.628906 16 17.640625 C 16 17.664062 16.050781 17.71875 16.070312 17.71875 C 16.089844 17.71875 16.140625 17.773438 16.140625 17.796875 C 16.140625 17.804688 16.164062 17.824219 16.191406 17.839844 C 16.21875 17.855469 16.238281 17.875 16.238281 17.886719 C 16.238281 17.90625 16.289062 17.960938 16.308594 17.960938 C 16.328125 17.960938 16.378906 18.011719 16.378906 18.03125 C 16.378906 18.050781 16.433594 18.101562 16.457031 18.101562 C 16.46875 18.101562 16.480469 18.109375 16.480469 18.121094 C 16.480469 18.144531 16.527344 18.199219 16.550781 18.199219 C 16.554688 18.199219 16.621094 18.261719 16.699219 18.339844 C 16.773438 18.417969 16.851562 18.480469 16.867188 18.480469 C 16.886719 18.480469 16.898438 18.492188 16.898438 18.511719 C 16.898438 18.527344 16.910156 18.539062 16.921875 18.539062 C 16.949219 18.539062 17 18.589844 17 18.617188 C 17 18.628906 17.011719 18.640625 17.027344 18.640625 C 17.039062 18.640625 17.0625 18.65625 17.078125 18.679688 C 17.128906 18.746094 17.28125 18.6875 17.28125 18.601562 C 17.28125 18.589844 17.289062 18.578125 17.300781 18.578125 C 17.328125 18.578125 17.378906 18.527344 17.378906 18.5 C 17.378906 18.488281 17.390625 18.480469 17.402344 18.480469 C 17.429688 18.480469 17.519531 18.386719 17.519531 18.359375 C 17.519531 18.347656 17.53125 18.339844 17.542969 18.339844 C 17.570312 18.339844 17.621094 18.289062 17.621094 18.261719 C 17.621094 18.25 17.628906 18.238281 17.640625 18.238281 C 17.667969 18.238281 17.761719 18.148438 17.761719 18.121094 C 17.761719 18.109375 17.769531 18.101562 17.78125 18.101562 C 17.792969 18.101562 17.816406 18.085938 17.832031 18.070312 C 17.847656 18.054688 17.859375 18.03125 17.859375 18.019531 C 17.859375 18.007812 17.871094 18 17.882812 18 C 17.90625 18 18 17.90625 18 17.882812 C 18 17.871094 18.007812 17.859375 18.019531 17.859375 C 18.03125 17.859375 18.054688 17.847656 18.070312 17.832031 C 18.085938 17.816406 18.101562 17.792969 18.101562 17.78125 C 18.101562 17.769531 18.109375 17.761719 18.121094 17.761719 C 18.148438 17.761719 18.238281 17.667969 18.238281 17.640625 C 18.238281 17.628906 18.25 17.621094 18.261719 17.621094 C 18.273438 17.621094 18.296875 17.605469 18.3125 17.589844 C 18.328125 17.574219 18.339844 17.554688 18.339844 17.542969 C 18.339844 17.53125 18.347656 17.519531 18.359375 17.519531 C 18.386719 17.519531 18.480469 17.429688 18.480469 17.402344 C 18.480469 17.390625 18.488281 17.378906 18.5 17.378906 C 18.550781 17.378906 18.578125 17.320312 18.578125 17.21875 C 18.578125 17.121094 18.550781 17.058594 18.5 17.058594 C 18.488281 17.058594 18.480469 17.050781 18.480469 17.039062 C 18.480469 17.027344 18.433594 16.972656 18.382812 16.917969 C 18.328125 16.863281 18.273438 16.820312 18.261719 16.820312 C 18.25 16.820312 18.238281 16.8125 18.238281 16.800781 C 18.238281 16.789062 18.195312 16.734375 18.140625 16.679688 C 18.085938 16.625 18.03125 16.578125 18.019531 16.578125 C 18.007812 16.578125 18 16.570312 18 16.558594 C 18 16.546875 17.96875 16.507812 17.929688 16.46875 C 17.890625 16.429688 17.859375 16.390625 17.859375 16.378906 C 17.859375 16.367188 17.6875 16.1875 17.480469 15.980469 C 17.269531 15.769531 17.101562 15.589844 17.101562 15.578125 C 17.101562 15.570312 17.089844 15.558594 17.082031 15.558594 C 17.054688 15.558594 16.859375 15.363281 16.859375 15.339844 C 16.859375 15.328125 16.851562 15.320312 16.839844 15.320312 C 16.816406 15.320312 16.621094 15.125 16.621094 15.097656 C 16.621094 15.089844 16.609375 15.078125 16.597656 15.078125 C 16.574219 15.078125 16.480469 14.980469 16.480469 14.953125 C 16.480469 14.945312 16.46875 14.941406 16.457031 14.941406 C 16.429688 14.941406 16.378906 14.890625 16.378906 14.863281 C 16.378906 14.851562 16.371094 14.839844 16.355469 14.839844 C 16.332031 14.839844 16.238281 14.742188 16.238281 14.714844 C 16.238281 14.707031 16.230469 14.699219 16.21875 14.699219 C 16.191406 14.699219 16.140625 14.648438 16.140625 14.621094 C 16.140625 14.609375 16.128906 14.601562 16.117188 14.601562 C 16.09375 14.601562 16 14.5 16 14.476562 C 16 14.464844 15.992188 14.460938 15.980469 14.460938 C 15.949219 14.460938 15.898438 14.410156 15.898438 14.382812 C 15.898438 14.371094 15.890625 14.359375 15.878906 14.359375 C 15.851562 14.359375 15.761719 14.261719 15.761719 14.234375 C 15.761719 14.226562 15.75 14.21875 15.738281 14.21875 C 15.710938 14.21875 15.660156 14.167969 15.660156 14.140625 C 15.660156 14.128906 15.652344 14.121094 15.644531 14.121094 C 15.621094 14.121094 15.519531 14.027344 15.519531 14.003906 C 15.519531 13.988281 15.511719 13.980469 15.5 13.980469 C 15.472656 13.980469 15.421875 13.929688 15.421875 13.90625 C 15.421875 13.894531 15.398438 13.875 15.371094 13.859375 C 15.347656 13.847656 15.3125 13.8125 15.296875 13.789062 C 15.285156 13.761719 15.265625 13.738281 15.253906 13.738281 C 15.234375 13.738281 15.179688 13.6875 15.179688 13.671875 C 15.179688 13.652344 15.125 13.601562 15.105469 13.601562 C 15.09375 13.601562 15.074219 13.574219 15.058594 13.546875 C 15.042969 13.515625 14.988281 13.445312 14.9375 13.394531 C 14.882812 13.339844 14.839844 13.292969 14.839844 13.285156 C 14.839844 13.269531 14.78125 13.21875 14.761719 13.21875 C 14.75 13.21875 14.738281 13.210938 14.738281 13.199219 C 14.738281 13.171875 14.648438 13.078125 14.621094 13.078125 C 14.609375 13.078125 14.601562 13.070312 14.601562 13.058594 C 14.601562 13.03125 14.550781 12.980469 14.519531 12.980469 C 14.507812 12.980469 14.5 12.96875 14.5 12.960938 C 14.5 12.933594 14.40625 12.839844 14.382812 12.839844 C 14.371094 12.839844 14.359375 12.832031 14.359375 12.820312 C 14.359375 12.792969 14.308594 12.738281 14.285156 12.738281 C 14.273438 12.738281 14.257812 12.726562 14.253906 12.710938 C 14.246094 12.695312 14.226562 12.679688 14.210938 12.679688 C 14.195312 12.679688 14.179688 12.671875 14.179688 12.660156 C 14.179688 12.648438 14.171875 12.640625 14.160156 12.640625 C 14.132812 12.640625 14.078125 12.589844 14.078125 12.5625 C 14.078125 12.550781 14.066406 12.539062 14.050781 12.539062 C 14.035156 12.539062 14.019531 12.53125 14.019531 12.519531 C 14.019531 12.507812 14.007812 12.5 13.988281 12.5 C 13.972656 12.5 13.9375 12.476562 13.910156 12.449219 C 13.886719 12.421875 13.847656 12.398438 13.824219 12.398438 C 13.800781 12.398438 13.78125 12.390625 13.78125 12.378906 C 13.78125 12.367188 13.761719 12.359375 13.742188 12.359375 C 13.722656 12.359375 13.699219 12.347656 13.691406 12.328125 C 13.683594 12.308594 13.652344 12.300781 13.570312 12.300781 C 13.511719 12.300781 13.460938 12.289062 13.460938 12.28125 C 13.460938 12.269531 13.378906 12.261719 13.261719 12.261719 C 13.09375 12.261719 13.058594 12.253906 13.058594 12.230469 C 13.058594 12.207031 13.035156 12.199219 12.96875 12.199219 C 12.921875 12.199219 12.878906 12.191406 12.878906 12.179688 C 12.878906 12.167969 12.863281 12.160156 12.839844 12.160156 C 12.75 12.160156 12.742188 12.117188 12.8125 12.046875 C 12.851562 12.011719 12.878906 11.96875 12.878906 11.949219 C 12.878906 11.933594 12.890625 11.921875 12.898438 11.921875 C 12.910156 11.921875 12.921875 11.90625 12.921875 11.890625 C 12.921875 11.875 12.929688 11.859375 12.941406 11.859375 C 12.972656 11.859375 13.019531 11.808594 13.019531 11.769531 C 13.019531 11.734375 13.066406 11.679688 13.097656 11.679688 C 13.109375 11.679688 13.121094 11.660156 13.121094 11.632812 C 13.121094 11.609375 13.140625 11.574219 13.171875 11.550781 C 13.199219 11.53125 13.21875 11.496094 13.21875 11.476562 C 13.21875 11.457031 13.230469 11.441406 13.238281 11.441406 C 13.25 11.441406 13.261719 11.425781 13.261719 11.410156 C 13.261719 11.394531 13.269531 11.378906 13.28125 11.378906 C 13.289062 11.378906 13.300781 11.363281 13.300781 11.339844 C 13.300781 11.316406 13.3125 11.300781 13.328125 11.300781 C 13.347656 11.300781 13.359375 11.285156 13.359375 11.269531 C 13.359375 11.253906 13.367188 11.238281 13.378906 11.238281 C 13.390625 11.238281 13.398438 11.21875 13.398438 11.191406 C 13.398438 11.164062 13.40625 11.140625 13.414062 11.140625 C 13.433594 11.140625 13.5 11.023438 13.5 10.988281 C 13.5 10.972656 13.507812 10.960938 13.519531 10.960938 C 13.53125 10.960938 13.539062 10.9375 13.539062 10.910156 C 13.539062 10.878906 13.550781 10.859375 13.570312 10.859375 C 13.589844 10.859375 13.601562 10.839844 13.601562 10.808594 C 13.601562 10.78125 13.609375 10.761719 13.621094 10.761719 C 13.632812 10.761719 13.640625 10.738281 13.640625 10.710938 C 13.640625 10.683594 13.648438 10.660156 13.660156 10.660156 C 13.683594 10.660156 13.738281 10.542969 13.738281 10.488281 C 13.738281 10.464844 13.75 10.4375 13.761719 10.429688 C 13.769531 10.421875 13.78125 10.402344 13.78125 10.382812 C 13.78125 10.359375 13.792969 10.339844 13.808594 10.332031 C 13.828125 10.324219 13.839844 10.296875 13.839844 10.25 C 13.839844 10.210938 13.847656 10.179688 13.859375 10.179688 C 13.871094 10.179688 13.878906 10.148438 13.878906 10.113281 C 13.878906 10.070312 13.890625 10.039062 13.910156 10.03125 C 13.925781 10.027344 13.941406 9.996094 13.941406 9.960938 C 13.941406 9.925781 13.949219 9.898438 13.960938 9.898438 C 13.972656 9.898438 13.980469 9.859375 13.980469 9.8125 C 13.980469 9.761719 13.988281 9.71875 14 9.710938 C 14.011719 9.703125 14.019531 9.65625 14.019531 9.609375 C 14.019531 9.542969 14.027344 9.519531 14.050781 9.519531 C 14.074219 9.519531 14.078125 9.492188 14.078125 9.398438 C 14.078125 9.332031 14.089844 9.28125 14.101562 9.28125 C 14.109375 9.28125 14.121094 9.230469 14.121094 9.167969 C 14.121094 9.097656 14.128906 9.046875 14.148438 9.027344 C 14.171875 9.003906 14.179688 8.949219 14.179688 8.796875 C 14.179688 8.679688 14.1875 8.601562 14.199219 8.601562 C 14.210938 8.601562 14.21875 8.5 14.21875 8.339844 L 14.21875 8.078125 L 12.261719 8.078125 L 12.261719 8.246094 "
            style=" stroke:none;fill-rule:evenodd;fill:rgb(7.843137%,51.764706%,98.823529%);fill-opacity:1;"></path>
    </g>
</svg>